<?xml version="1.0" standalone="no"?>
<!DOCTYPE svg PUBLIC "-//W3C//DTD SVG 20010904//EN"
 "http://www.w3.org/TR/2001/REC-SVG-20010904/DTD/svg10.dtd">
<svg version="1.0" xmlns="http://www.w3.org/2000/svg"
 width="800.000000pt" height="868.000000pt" viewBox="0 0 800.000000 868.000000"
 preserveAspectRatio="xMidYMid meet" fill="#FFFFFF">

<g transform="translate(0.000000,868.000000) scale(0.100000,-0.100000)"
fill="#fffffff" stroke="none">
<path d="M5880 7953 c-295 -285 -451 -468 -626 -728 -236 -354 -387 -747 -458
-1195 -45 -277 -65 -722 -48 -1065 5 -104 8 -191 6 -193 -1 -2 -19 25 -40 60
-371 614 -1246 1775 -1554 2061 -208 193 -556 435 -1055 734 -197 118 -417
243 -427 243 -6 0 11 -96 35 -205 248 -1106 820 -1927 1727 -2478 63 -39 192
-109 285 -157 152 -77 239 -116 480 -216 l70 -29 -65 -3 c-236 -9 -506 -60
-740 -139 -94 -32 -273 -116 -365 -173 -394 -242 -672 -651 -735 -1082 -45
-305 24 -487 268 -719 207 -196 560 -386 817 -439 46 -10 55 -15 50 -28 -38
-99 -55 -318 -36 -471 12 -94 49 -208 67 -204 5 1 173 82 374 181 201 99 366
179 367 178 0 0 6 -79 12 -175 6 -96 12 -176 14 -178 6 -5 211 67 347 122 352
142 706 325 827 429 30 26 44 48 51 79 5 23 24 104 41 180 124 543 155 1048
85 1386 -60 292 -180 535 -363 733 -39 42 -71 81 -71 87 0 5 15 25 33 43 329
330 551 734 681 1238 91 357 141 816 153 1413 6 335 -4 887 -16 887 -4 0 -89
-80 -191 -177z m-2385 -3763 c111 -61 160 -186 123 -314 -18 -61 -101 -140
-168 -160 -67 -20 -93 -20 -157 -1 -108 32 -183 134 -183 246 1 205 207 327
385 229z"/>
<path d="M5415 1690 c-11 -5 -135 -46 -275 -90 -140 -45 -266 -85 -280 -90
-14 -5 -140 -45 -280 -90 -140 -45 -261 -83 -269 -86 -10 -3 -12 -26 -9 -104
2 -54 6 -102 10 -105 3 -3 16 -1 29 4 27 11 277 92 529 171 91 28 176 55 190
60 14 5 99 32 190 60 246 76 220 58 220 154 0 123 -7 137 -55 116z"/>
<path d="M2974 1613 c3 -32 13 -125 21 -208 8 -82 21 -220 30 -305 8 -85 15
-163 15 -172 0 -10 4 -18 10 -18 5 0 103 47 218 104 115 57 218 107 231 111
18 6 47 -12 158 -97 74 -56 201 -153 282 -214 l146 -112 3 92 c2 50 -2 197 -7
326 -6 129 -11 289 -11 355 0 188 30 185 -276 32 l-263 -131 -43 21 c-24 12
-88 46 -143 76 -235 126 -369 197 -373 197 -3 0 -2 -26 2 -57z"/>
</g>
</svg>
