<?xml version="1.0" standalone="no"?>
<!DOCTYPE svg PUBLIC "-//W3C//DTD SVG 20010904//EN"
 "http://www.w3.org/TR/2001/REC-SVG-20010904/DTD/svg10.dtd">
<svg version="1.0" xmlns="http://www.w3.org/2000/svg"
 width="1157.000000pt" height="1157.000000pt" viewBox="0 0 1157.000000 1157.000000"
 preserveAspectRatio="xMidYMid meet">
<metadata>
Created by potrace 1.11, written by Peter Selinger 2001-2013
</metadata>
<g transform="translate(0.000000,1157.000000) scale(0.100000,-0.100000)"
fill="#000000" stroke="none">
<path d="M8405 10708 c-427 -404 -680 -688 -909 -1021 -219 -319 -392 -673
-504 -1032 -38 -121 -88 -307 -98 -365 -3 -14 -7 -32 -9 -40 -2 -8 -7 -31 -10
-50 -3 -19 -12 -71 -20 -115 -19 -107 -40 -277 -50 -400 -3 -38 -8 -92 -10
-120 -19 -229 -24 -646 -11 -987 4 -115 5 -208 3 -208 -2 0 -28 39 -58 86
-100 159 -113 179 -232 358 -65 99 -157 235 -205 304 -48 68 -94 134 -102 146
-42 60 -205 288 -298 416 -92 126 -126 172 -160 215 -4 6 -48 64 -98 130 -89
120 -110 147 -129 169 -6 6 -46 58 -90 116 -43 58 -82 107 -85 110 -3 3 -42
50 -85 105 -74 93 -272 334 -285 345 -3 3 -36 41 -75 85 -288 330 -666 620
-1365 1050 -124 76 -241 148 -260 161 -55 35 -466 272 -521 299 l-49 25 0 -24
c0 -30 48 -274 75 -376 65 -254 74 -285 151 -518 193 -581 497 -1132 876
-1590 216 -260 466 -505 713 -697 50 -38 95 -74 100 -78 36 -31 273 -194 338
-234 44 -26 96 -58 116 -70 197 -121 588 -314 878 -434 111 -46 203 -86 203
-89 0 -3 -26 -5 -58 -6 -60 -1 -225 -13 -264 -19 -13 -2 -59 -9 -103 -15 -338
-48 -657 -143 -927 -276 -259 -129 -427 -250 -619 -449 -165 -170 -271 -322
-379 -540 -129 -261 -193 -514 -194 -765 -1 -274 86 -460 324 -700 180 -181
381 -322 650 -456 163 -81 296 -133 420 -164 47 -12 97 -26 112 -31 l26 -11
-18 -64 c-10 -35 -19 -65 -18 -67 0 -1 -3 -22 -6 -47 -15 -117 -19 -210 -15
-405 3 -109 65 -325 95 -325 7 0 120 52 251 116 531 260 701 342 720 348 15 5
19 1 20 -16 0 -13 3 -61 6 -108 4 -47 9 -127 13 -179 3 -51 8 -100 9 -110 2
-9 4 -24 4 -33 1 -14 6 -15 36 -7 49 14 333 116 372 134 17 8 35 15 40 15 4 0
19 6 33 13 14 8 39 18 55 24 67 23 371 163 534 245 318 161 509 286 547 360
29 56 141 594 179 858 39 277 50 434 49 730 -1 237 -3 274 -24 425 -33 235
-112 482 -223 695 -71 137 -162 264 -315 439 -41 48 -60 77 -55 85 5 8 40 47
78 88 92 98 132 143 180 203 22 27 48 58 57 69 26 29 168 240 223 330 125 208
262 518 344 781 40 130 93 329 105 395 3 19 9 46 12 60 12 54 62 358 68 415 4
33 9 74 11 90 10 77 25 217 30 280 3 39 7 97 10 130 3 33 8 98 10 145 3 47 8
150 12 230 9 166 10 1247 2 1419 -3 63 -10 116 -15 118 -5 2 -67 -52 -139
-119z m-3323 -5110 c163 -75 244 -250 194 -421 -34 -116 -182 -233 -308 -240
-172 -11 -330 112 -362 282 -21 115 14 231 95 311 74 73 140 99 249 96 57 -1
89 -8 132 -28z"/>
<path d="M7510 2200 c-260 -86 -985 -318 -1190 -382 -112 -34 -130 -44 -131
-75 -4 -79 3 -220 12 -235 6 -10 25 -7 91 15 112 38 598 194 673 216 33 10
104 33 158 50 133 42 254 81 432 136 83 26 159 55 170 66 17 17 20 32 19 117
0 124 -7 152 -37 151 -12 0 -101 -27 -197 -59z"/>
<path d="M4415 2163 c3 -32 8 -74 10 -93 3 -19 7 -64 10 -100 3 -36 8 -81 10
-100 2 -19 7 -66 10 -105 4 -38 8 -80 10 -91 2 -12 6 -61 10 -110 3 -49 8 -96
10 -104 2 -8 7 -60 11 -115 9 -141 8 -138 69 -112 28 12 52 25 53 29 2 4 7 8
12 8 4 0 104 47 222 104 286 138 276 135 324 105 29 -17 366 -268 459 -341 6
-4 24 -18 40 -31 112 -88 219 -167 222 -163 5 5 4 358 -1 476 -3 47 -8 222
-12 390 -3 168 -11 316 -16 329 -7 20 -13 23 -41 17 -17 -3 -175 -77 -350
-163 l-318 -158 -92 48 c-51 26 -130 68 -177 93 -47 25 -146 78 -220 116 -74
39 -159 84 -188 100 -29 15 -57 28 -63 28 -6 0 -7 -22 -4 -57z"/>
</g>
</svg>
